<svg xmlns="http://www.w3.org/2000/svg" version="1.1" xmlns:xlink="http://www.w3.org/1999/xlink" xmlns:svgjs="http://svgjs.dev/svgjs" width="2000" height="1247" viewBox="0 0 2000 1247"><g transform="matrix(1,0,0,1,-1.2121212121212466,0.504858299595071)"><svg viewBox="0 0 396 247" data-background-color="#000000" preserveAspectRatio="xMidYMid meet" height="1247" width="2000" xmlns="http://www.w3.org/2000/svg" xmlns:xlink="http://www.w3.org/1999/xlink"><g id="tight-bounds" transform="matrix(1,0,0,1,0.2400000000000091,-0.09999999999999432)"><svg viewBox="0 0 395.52 247.2" height="247.2" width="395.52"><g><svg></svg></g><g><svg viewBox="0 0 395.52 247.2" height="247.2" width="395.52"><g transform="matrix(1,0,0,1,84.16489028571428,47.215199999999996)"><svg viewBox="0 0 227.19021942857142 152.7696" height="152.7696" width="227.19021942857142"><g><svg viewBox="0 0 227.19021942857142 152.7696" height="152.7696" width="227.19021942857142"><g><svg viewBox="0 0 227.19021942857142 152.7696" height="152.7696" width="227.19021942857142"><g><svg viewBox="0 0 227.19021942857142 152.7696" height="152.7696" width="227.19021942857142"><g id="textblocktransform"><svg viewBox="0 0 227.19021942857142 152.7696" height="152.7696" width="227.19021942857142" id="textblock"><g><svg viewBox="0 0 227.19021942857142 152.7696" height="152.7696" width="227.19021942857142"><g transform="matrix(1,0,0,1,0,0)"><svg width="227.19021942857142" viewBox="0.5 -35 52.05 35" height="152.7696" data-palette-color="#ffffff"><path d="M16 0L11.25 0 11.25-30.8 0.5-30.8 0.5-35 26.75-35 26.75-30.8 16-30.8 16 0ZM52.55 0L31.75 0 31.75-35 36.5-35 36.5-4.25 52.55-4.25 52.55 0Z" opacity="1" transform="matrix(1,0,0,1,0,0)" fill="#000000" class="wordmark-text-0" data-fill-palette-color="primary" id="text-0"></path></svg></g></svg></g></svg></g></svg></g></svg></g></svg></g></svg></g><path d="M266.466 41.215L266.466 0 19.266 0 19.266 247.2 266.466 247.2 266.466 205.985 252.689 205.985 252.689 233.423 33.043 233.423 33.043 13.777 252.689 13.777 252.689 41.215Z" fill="#000000" stroke="transparent" data-fill-palette-color="tertiary"></path></svg></g><defs></defs></svg><rect width="395.52" height="247.2" fill="none" stroke="none" visibility="hidden"></rect></g></svg></g></svg>